<svg width="438" height="428" viewBox="0 0 438 428" fill="none" xmlns="http://www.w3.org/2000/svg">
<path d="M435.656 203H415.344C414.049 203 413 204.259 413 205.812V230.188C413 231.741 414.049 233 415.344 233H435.656C436.951 233 438 231.741 438 230.188V205.812C438 204.259 436.951 203 435.656 203ZM418.469 231.125H415.344C414.912 231.125 414.562 230.705 414.562 230.188V205.812C414.562 205.295 414.912 204.875 415.344 204.875H416.906V218.938C416.906 219.455 417.256 219.875 417.688 219.875H418.469V231.125ZM424.719 231.125H420.031V219.875H420.812C421.244 219.875 421.594 219.455 421.594 218.938V204.875H423.156V218.938C423.156 219.455 423.506 219.875 423.938 219.875H424.719V231.125ZM430.969 231.125H426.281V219.875H427.062C427.494 219.875 427.844 219.455 427.844 218.938V204.875H429.406V218.938C429.406 219.455 429.756 219.875 430.188 219.875H430.969V231.125ZM436.438 230.188C436.438 230.705 436.088 231.125 435.656 231.125H432.531V219.875H433.312C433.744 219.875 434.094 219.455 434.094 218.938V204.875H435.656C436.088 204.875 436.438 205.295 436.438 205.812V230.188Z" fill="white"/>
<path d="M29.6562 150H9.34375C8.04932 150 7 151.259 7 152.812V177.188C7 178.741 8.04932 180 9.34375 180H29.6562C30.9507 180 32 178.741 32 177.188V152.812C32 151.259 30.9507 150 29.6562 150ZM12.4688 178.125H9.34375C8.91226 178.125 8.5625 177.705 8.5625 177.188V152.812C8.5625 152.295 8.91226 151.875 9.34375 151.875H10.9062V165.938C10.9062 166.455 11.256 166.875 11.6875 166.875H12.4688V178.125ZM18.7188 178.125H14.0312V166.875H14.8125C15.244 166.875 15.5938 166.455 15.5938 165.938V151.875H17.1562V165.938C17.1562 166.455 17.506 166.875 17.9375 166.875H18.7188V178.125ZM24.9688 178.125H20.2812V166.875H21.0625C21.494 166.875 21.8438 166.455 21.8438 165.938V151.875H23.4062V165.938C23.4062 166.455 23.756 166.875 24.1875 166.875H24.9688V178.125ZM30.4375 177.188C30.4375 177.705 30.0877 178.125 29.6562 178.125H26.5312V166.875H27.3125C27.744 166.875 28.0938 166.455 28.0938 165.938V151.875H29.6562C30.0877 151.875 30.4375 152.295 30.4375 152.812V177.188Z" fill="white"/>
<path d="M341.775 34.5H322.225C320.72 34.5 319.5 35.72 319.5 37.225V56.775C319.5 58.28 320.72 59.5 322.225 59.5H341.775C343.28 59.5 344.5 58.28 344.5 56.775V37.225C344.5 35.72 343.28 34.5 341.775 34.5Z" stroke="white" stroke-width="2.33333" stroke-linecap="round" stroke-linejoin="round"/>
<path d="M325.75 34.5V59.5" stroke="white" stroke-width="2.33333" stroke-linecap="round" stroke-linejoin="round"/>
<path d="M338.25 34.5V59.5" stroke="white" stroke-width="2.33333" stroke-linecap="round" stroke-linejoin="round"/>
<path d="M319.5 47H344.5" stroke="white" stroke-width="2.33333" stroke-linecap="round" stroke-linejoin="round"/>
<path d="M319.5 40.75H325.75" stroke="white" stroke-width="2.33333" stroke-linecap="round" stroke-linejoin="round"/>
<path d="M319.5 53.25H325.75" stroke="white" stroke-width="2.33333" stroke-linecap="round" stroke-linejoin="round"/>
<path d="M338.25 53.25H344.5" stroke="white" stroke-width="2.33333" stroke-linecap="round" stroke-linejoin="round"/>
<path d="M338.25 40.75H344.5" stroke="white" stroke-width="2.33333" stroke-linecap="round" stroke-linejoin="round"/>
<path d="M116.775 34.5H97.225C95.72 34.5 94.5 35.72 94.5 37.225V56.775C94.5 58.28 95.72 59.5 97.225 59.5H116.775C118.28 59.5 119.5 58.28 119.5 56.775V37.225C119.5 35.72 118.28 34.5 116.775 34.5Z" stroke="white" stroke-width="2.33333" stroke-linecap="round" stroke-linejoin="round"/>
<path d="M100.75 34.5V59.5" stroke="white" stroke-width="2.33333" stroke-linecap="round" stroke-linejoin="round"/>
<path d="M113.25 34.5V59.5" stroke="white" stroke-width="2.33333" stroke-linecap="round" stroke-linejoin="round"/>
<path d="M94.5 47H119.5" stroke="white" stroke-width="2.33333" stroke-linecap="round" stroke-linejoin="round"/>
<path d="M94.5 40.75H100.75" stroke="white" stroke-width="2.33333" stroke-linecap="round" stroke-linejoin="round"/>
<path d="M94.5 53.25H100.75" stroke="white" stroke-width="2.33333" stroke-linecap="round" stroke-linejoin="round"/>
<path d="M113.25 53.25H119.5" stroke="white" stroke-width="2.33333" stroke-linecap="round" stroke-linejoin="round"/>
<path d="M113.25 40.75H119.5" stroke="white" stroke-width="2.33333" stroke-linecap="round" stroke-linejoin="round"/>
<path d="M407.75 107C406.755 107 405.802 107.527 405.098 108.464C404.395 109.402 404 110.674 404 112V132C404 133.326 404.395 134.598 405.098 135.536C405.802 136.473 406.755 137 407.75 137C408.745 137 409.698 136.473 410.402 135.536C411.105 134.598 411.5 133.326 411.5 132C411.5 130.674 411.105 129.402 410.402 128.464C409.698 127.527 408.745 127 407.75 127H392.75C391.755 127 390.802 127.527 390.098 128.464C389.395 129.402 389 130.674 389 132C389 133.326 389.395 134.598 390.098 135.536C390.802 136.473 391.755 137 392.75 137C393.745 137 394.698 136.473 395.402 135.536C396.105 134.598 396.5 133.326 396.5 132V112C396.5 110.674 396.105 109.402 395.402 108.464C394.698 107.527 393.745 107 392.75 107C391.755 107 390.802 107.527 390.098 108.464C389.395 109.402 389 110.674 389 112C389 113.326 389.395 114.598 390.098 115.536C390.802 116.473 391.755 117 392.75 117H407.75C408.745 117 409.698 116.473 410.402 115.536C411.105 114.598 411.5 113.326 411.5 112C411.5 110.674 411.105 109.402 410.402 108.464C409.698 107.527 408.745 107 407.75 107Z" stroke="white" stroke-width="2.33333" stroke-linecap="round" stroke-linejoin="round"/>
<path d="M218.75 2C217.755 2 216.802 2.52678 216.098 3.46447C215.395 4.40215 215 5.67392 215 7V27C215 28.3261 215.395 29.5979 216.098 30.5355C216.802 31.4732 217.755 32 218.75 32C219.745 32 220.698 31.4732 221.402 30.5355C222.105 29.5979 222.5 28.3261 222.5 27C222.5 25.6739 222.105 24.4021 221.402 23.4645C220.698 22.5268 219.745 22 218.75 22H203.75C202.755 22 201.802 22.5268 201.098 23.4645C200.395 24.4021 200 25.6739 200 27C200 28.3261 200.395 29.5979 201.098 30.5355C201.802 31.4732 202.755 32 203.75 32C204.745 32 205.698 31.4732 206.402 30.5355C207.105 29.5979 207.5 28.3261 207.5 27V7C207.5 5.67392 207.105 4.40215 206.402 3.46447C205.698 2.52678 204.745 2 203.75 2C202.755 2 201.802 2.52678 201.098 3.46447C200.395 4.40215 200 5.67392 200 7C200 8.32608 200.395 9.59785 201.098 10.5355C201.802 11.4732 202.755 12 203.75 12H218.75C219.745 12 220.698 11.4732 221.402 10.5355C222.105 9.59785 222.5 8.32608 222.5 7C222.5 5.67392 222.105 4.40215 221.402 3.46447C220.698 2.52678 219.745 2 218.75 2Z" stroke="white" stroke-width="2.33333" stroke-linecap="round" stroke-linejoin="round"/>
<path d="M20 206.75H1.25V223H20V206.75Z" stroke="white" stroke-width="2.33333" stroke-linecap="round" stroke-linejoin="round"/>
<path d="M20 213H25L28.75 216.75V223H20V213Z" stroke="white" stroke-width="2.33333" stroke-linecap="round" stroke-linejoin="round"/>
<path d="M6.875 229.25C8.60089 229.25 10 227.851 10 226.125C10 224.399 8.60089 223 6.875 223C5.14911 223 3.75 224.399 3.75 226.125C3.75 227.851 5.14911 229.25 6.875 229.25Z" stroke="white" stroke-width="2.33333" stroke-linecap="round" stroke-linejoin="round"/>
<path d="M23.125 229.25C24.8509 229.25 26.25 227.851 26.25 226.125C26.25 224.399 24.8509 223 23.125 223C21.3991 223 20 224.399 20 226.125C20 227.851 21.3991 229.25 23.125 229.25Z" stroke="white" stroke-width="2.33333" stroke-linecap="round" stroke-linejoin="round"/>
<path d="M48.175 115.025C48.0265 114.432 47.7241 113.888 47.2983 113.449C46.8725 113.01 46.3384 112.691 45.75 112.525C43.6 112 35 112 35 112C35 112 26.4 112 24.25 112.575C23.6616 112.741 23.1275 113.06 22.7017 113.499C22.2759 113.938 21.9735 114.482 21.825 115.075C21.4315 117.257 21.239 119.47 21.25 121.687C21.236 123.921 21.4285 126.152 21.825 128.35C21.9887 128.925 22.2979 129.448 22.7227 129.868C23.1475 130.289 23.6735 130.592 24.25 130.75C26.4 131.325 35 131.325 35 131.325C35 131.325 43.6 131.325 45.75 130.75C46.3384 130.584 46.8725 130.265 47.2983 129.826C47.7241 129.387 48.0265 128.843 48.175 128.25C48.5654 126.084 48.7579 123.888 48.75 121.687C48.764 119.454 48.5715 117.223 48.175 115.025V115.025Z" stroke="white" stroke-width="2.33333" stroke-linecap="round" stroke-linejoin="round"/>
<path d="M32.1875 125.775L39.375 121.687L32.1875 117.6V125.775Z" stroke="white" stroke-width="2.33333" stroke-linecap="round" stroke-linejoin="round"/>
<path d="M283.175 19.025C283.027 18.4318 282.724 17.8882 282.298 17.4493C281.873 17.0103 281.338 16.6915 280.75 16.525C278.6 16 270 16 270 16C270 16 261.4 16 259.25 16.575C258.662 16.7415 258.127 17.0603 257.702 17.4993C257.276 17.9382 256.973 18.4818 256.825 19.075C256.432 21.2569 256.239 23.4704 256.25 25.6875C256.236 27.9213 256.428 30.1516 256.825 32.35C256.989 32.9248 257.298 33.4477 257.723 33.8681C258.147 34.2885 258.674 34.5923 259.25 34.75C261.4 35.325 270 35.325 270 35.325C270 35.325 278.6 35.325 280.75 34.75C281.338 34.5835 281.873 34.2647 282.298 33.8257C282.724 33.3868 283.027 32.8432 283.175 32.25C283.565 30.0845 283.758 27.8879 283.75 25.6875C283.764 23.4537 283.572 21.2234 283.175 19.025V19.025Z" stroke="white" stroke-width="2.33333" stroke-linecap="round" stroke-linejoin="round"/>
<path d="M267.188 29.775L274.375 25.6875L267.188 21.6V29.775Z" stroke="white" stroke-width="2.33333" stroke-linecap="round" stroke-linejoin="round"/>
<path d="M58.825 68.5H69.175L76.5 75.825V86.175L69.175 93.5H58.825L51.5 86.175V75.825L58.825 68.5Z" stroke="#FFFBFB" stroke-width="2.33333" stroke-linecap="round" stroke-linejoin="round"/>
<path d="M67.75 77.25L60.25 84.75" stroke="#FFFBFB" stroke-width="2.33333" stroke-linecap="round" stroke-linejoin="round"/>
<path d="M60.25 77.25L67.75 84.75" stroke="#FFFBFB" stroke-width="2.33333" stroke-linecap="round" stroke-linejoin="round"/>
<path d="M379.25 88.5C379.25 86.8424 378.592 85.2527 377.419 84.0806C376.247 82.9085 374.658 82.25 373 82.25C371.342 82.25 369.753 82.9085 368.581 84.0806C367.408 85.2527 366.75 86.8424 366.75 88.5" stroke="#FFFBFB" stroke-width="2.33333" stroke-linecap="round" stroke-linejoin="round"/>
<path d="M373 68.5V77.25" stroke="#FFFBFB" stroke-width="2.33333" stroke-linecap="round" stroke-linejoin="round"/>
<path d="M363.275 78.775L365.05 80.55" stroke="#FFFBFB" stroke-width="2.33333" stroke-linecap="round" stroke-linejoin="round"/>
<path d="M359.25 88.5H361.75" stroke="#FFFBFB" stroke-width="2.33333" stroke-linecap="round" stroke-linejoin="round"/>
<path d="M384.25 88.5H386.75" stroke="#FFFBFB" stroke-width="2.33333" stroke-linecap="round" stroke-linejoin="round"/>
<path d="M380.95 80.55L382.725 78.775" stroke="#FFFBFB" stroke-width="2.33333" stroke-linecap="round" stroke-linejoin="round"/>
<path d="M386.75 93.5H359.25" stroke="#FFFBFB" stroke-width="2.33333" stroke-linecap="round" stroke-linejoin="round"/>
<path d="M368 73.5L373 68.5L378 73.5" stroke="#FFFBFB" stroke-width="2.33333" stroke-linecap="round" stroke-linejoin="round"/>
<path d="M426.75 176.25H409.25C408.587 176.25 407.951 175.987 407.482 175.518C407.013 175.049 406.75 174.413 406.75 173.75V156.25C406.75 155.587 407.013 154.951 407.482 154.482C407.951 154.013 408.587 153.75 409.25 153.75H423L429.25 160V173.75C429.25 174.413 428.987 175.049 428.518 175.518C428.049 175.987 427.413 176.25 426.75 176.25Z" stroke="#FFFBFB" stroke-width="2.33333" stroke-linecap="round" stroke-linejoin="round"/>
<path d="M424.25 176.25V166.25H411.75V176.25" stroke="#FFFBFB" stroke-width="2.33333" stroke-linecap="round" stroke-linejoin="round"/>
<path d="M411.75 153.75V160H421.75" stroke="#FFFBFB" stroke-width="2.33333" stroke-linecap="round" stroke-linejoin="round"/>
<path d="M169.75 37.25H152.25C151.587 37.25 150.951 36.9866 150.482 36.5178C150.013 36.0489 149.75 35.413 149.75 34.75V17.25C149.75 16.587 150.013 15.9511 150.482 15.4822C150.951 15.0134 151.587 14.75 152.25 14.75H166L172.25 21V34.75C172.25 35.413 171.987 36.0489 171.518 36.5178C171.049 36.9866 170.413 37.25 169.75 37.25Z" stroke="#FFFBFB" stroke-width="2.33333" stroke-linecap="round" stroke-linejoin="round"/>
<path d="M167.25 37.25V27.25H154.75V37.25" stroke="#FFFBFB" stroke-width="2.33333" stroke-linecap="round" stroke-linejoin="round"/>
<path d="M154.75 14.75V21H164.75" stroke="#FFFBFB" stroke-width="2.33333" stroke-linecap="round" stroke-linejoin="round"/>
<path d="M30.6562 278H10.3438C9.04932 278 8 276.741 8 275.188V250.812C8 249.259 9.04932 248 10.3438 248H30.6562C31.9507 248 33 249.259 33 250.812V275.188C33 276.741 31.9507 278 30.6562 278ZM13.4688 249.875H10.3438C9.91226 249.875 9.5625 250.295 9.5625 250.812V275.188C9.5625 275.705 9.91226 276.125 10.3438 276.125H11.9062V262.062C11.9062 261.545 12.256 261.125 12.6875 261.125H13.4688V249.875ZM19.7188 249.875H15.0312V261.125H15.8125C16.244 261.125 16.5938 261.545 16.5938 262.062V276.125H18.1562V262.062C18.1562 261.545 18.506 261.125 18.9375 261.125H19.7188V249.875ZM25.9688 249.875H21.2812V261.125H22.0625C22.494 261.125 22.8438 261.545 22.8438 262.062V276.125H24.4062V262.062C24.4062 261.545 24.756 261.125 25.1875 261.125H25.9688V249.875ZM31.4375 250.812C31.4375 250.295 31.0877 249.875 30.6562 249.875H27.5312V261.125H28.3125C28.744 261.125 29.0938 261.545 29.0938 262.062V276.125H30.6562C31.0877 276.125 31.4375 275.705 31.4375 275.188V250.812Z" fill="white"/>
<path d="M342.775 393.5H323.225C321.72 393.5 320.5 392.28 320.5 390.775V371.225C320.5 369.72 321.72 368.5 323.225 368.5H342.775C344.28 368.5 345.5 369.72 345.5 371.225V390.775C345.5 392.28 344.28 393.5 342.775 393.5Z" stroke="white" stroke-width="2.33333" stroke-linecap="round" stroke-linejoin="round"/>
<path d="M326.75 393.5V368.5" stroke="white" stroke-width="2.33333" stroke-linecap="round" stroke-linejoin="round"/>
<path d="M339.25 393.5V368.5" stroke="white" stroke-width="2.33333" stroke-linecap="round" stroke-linejoin="round"/>
<path d="M320.5 381H345.5" stroke="white" stroke-width="2.33333" stroke-linecap="round" stroke-linejoin="round"/>
<path d="M320.5 387.25H326.75" stroke="white" stroke-width="2.33333" stroke-linecap="round" stroke-linejoin="round"/>
<path d="M320.5 374.75H326.75" stroke="white" stroke-width="2.33333" stroke-linecap="round" stroke-linejoin="round"/>
<path d="M339.25 374.75H345.5" stroke="white" stroke-width="2.33333" stroke-linecap="round" stroke-linejoin="round"/>
<path d="M339.25 387.25H345.5" stroke="white" stroke-width="2.33333" stroke-linecap="round" stroke-linejoin="round"/>
<path d="M117.775 393.5H98.225C96.72 393.5 95.5 392.28 95.5 390.775V371.225C95.5 369.72 96.72 368.5 98.225 368.5H117.775C119.28 368.5 120.5 369.72 120.5 371.225V390.775C120.5 392.28 119.28 393.5 117.775 393.5Z" stroke="white" stroke-width="2.33333" stroke-linecap="round" stroke-linejoin="round"/>
<path d="M101.75 393.5V368.5" stroke="white" stroke-width="2.33333" stroke-linecap="round" stroke-linejoin="round"/>
<path d="M114.25 393.5V368.5" stroke="white" stroke-width="2.33333" stroke-linecap="round" stroke-linejoin="round"/>
<path d="M95.5 381H120.5" stroke="white" stroke-width="2.33333" stroke-linecap="round" stroke-linejoin="round"/>
<path d="M95.5 387.25H101.75" stroke="white" stroke-width="2.33333" stroke-linecap="round" stroke-linejoin="round"/>
<path d="M95.5 374.75H101.75" stroke="white" stroke-width="2.33333" stroke-linecap="round" stroke-linejoin="round"/>
<path d="M114.25 374.75H120.5" stroke="white" stroke-width="2.33333" stroke-linecap="round" stroke-linejoin="round"/>
<path d="M114.25 387.25H120.5" stroke="white" stroke-width="2.33333" stroke-linecap="round" stroke-linejoin="round"/>
<path d="M408.75 321C407.755 321 406.802 320.473 406.098 319.536C405.395 318.598 405 317.326 405 316V296C405 294.674 405.395 293.402 406.098 292.464C406.802 291.527 407.755 291 408.75 291C409.745 291 410.698 291.527 411.402 292.464C412.105 293.402 412.5 294.674 412.5 296C412.5 297.326 412.105 298.598 411.402 299.536C410.698 300.473 409.745 301 408.75 301H393.75C392.755 301 391.802 300.473 391.098 299.536C390.395 298.598 390 297.326 390 296C390 294.674 390.395 293.402 391.098 292.464C391.802 291.527 392.755 291 393.75 291C394.745 291 395.698 291.527 396.402 292.464C397.105 293.402 397.5 294.674 397.5 296V316C397.5 317.326 397.105 318.598 396.402 319.536C395.698 320.473 394.745 321 393.75 321C392.755 321 391.802 320.473 391.098 319.536C390.395 318.598 390 317.326 390 316C390 314.674 390.395 313.402 391.098 312.464C391.802 311.527 392.755 311 393.75 311H408.75C409.745 311 410.698 311.527 411.402 312.464C412.105 313.402 412.5 314.674 412.5 316C412.5 317.326 412.105 318.598 411.402 319.536C410.698 320.473 409.745 321 408.75 321Z" stroke="white" stroke-width="2.33333" stroke-linecap="round" stroke-linejoin="round"/>
<path d="M219.75 426C218.755 426 217.802 425.473 217.098 424.536C216.395 423.598 216 422.326 216 421V401C216 399.674 216.395 398.402 217.098 397.464C217.802 396.527 218.755 396 219.75 396C220.745 396 221.698 396.527 222.402 397.464C223.105 398.402 223.5 399.674 223.5 401C223.5 402.326 223.105 403.598 222.402 404.536C221.698 405.473 220.745 406 219.75 406H204.75C203.755 406 202.802 405.473 202.098 404.536C201.395 403.598 201 402.326 201 401C201 399.674 201.395 398.402 202.098 397.464C202.802 396.527 203.755 396 204.75 396C205.745 396 206.698 396.527 207.402 397.464C208.105 398.402 208.5 399.674 208.5 401V421C208.5 422.326 208.105 423.598 207.402 424.536C206.698 425.473 205.745 426 204.75 426C203.755 426 202.802 425.473 202.098 424.536C201.395 423.598 201 422.326 201 421C201 419.674 201.395 418.402 202.098 417.464C202.802 416.527 203.755 416 204.75 416H219.75C220.745 416 221.698 416.527 222.402 417.464C223.105 418.402 223.5 419.674 223.5 421C223.5 422.326 223.105 423.598 222.402 424.536C221.698 425.473 220.745 426 219.75 426Z" stroke="white" stroke-width="2.33333" stroke-linecap="round" stroke-linejoin="round"/>
<path d="M49.175 312.975C49.0265 313.568 48.7241 314.112 48.2983 314.551C47.8725 314.99 47.3384 315.309 46.75 315.475C44.6 316 36 316 36 316C36 316 27.4 316 25.25 315.425C24.6616 315.259 24.1275 314.94 23.7017 314.501C23.2759 314.062 22.9735 313.518 22.825 312.925C22.4315 310.743 22.239 308.53 22.25 306.312C22.236 304.079 22.4285 301.848 22.825 299.65C22.9887 299.075 23.2979 298.552 23.7227 298.132C24.1475 297.711 24.6735 297.408 25.25 297.25C27.4 296.675 36 296.675 36 296.675C36 296.675 44.6 296.675 46.75 297.25C47.3384 297.416 47.8725 297.735 48.2983 298.174C48.7241 298.613 49.0265 299.157 49.175 299.75C49.5654 301.916 49.7579 304.112 49.75 306.312C49.764 308.546 49.5715 310.777 49.175 312.975V312.975Z" stroke="white" stroke-width="2.33333" stroke-linecap="round" stroke-linejoin="round"/>
<path d="M33.1875 302.225L40.375 306.313L33.1875 310.4V302.225Z" stroke="white" stroke-width="2.33333" stroke-linecap="round" stroke-linejoin="round"/>
<path d="M284.175 408.975C284.027 409.568 283.724 410.112 283.298 410.551C282.873 410.99 282.338 411.309 281.75 411.475C279.6 412 271 412 271 412C271 412 262.4 412 260.25 411.425C259.662 411.259 259.127 410.94 258.702 410.501C258.276 410.062 257.973 409.518 257.825 408.925C257.432 406.743 257.239 404.53 257.25 402.313C257.236 400.079 257.428 397.848 257.825 395.65C257.989 395.075 258.298 394.552 258.723 394.132C259.147 393.711 259.674 393.408 260.25 393.25C262.4 392.675 271 392.675 271 392.675C271 392.675 279.6 392.675 281.75 393.25C282.338 393.416 282.873 393.735 283.298 394.174C283.724 394.613 284.027 395.157 284.175 395.75C284.565 397.916 284.758 400.112 284.75 402.313C284.764 404.546 284.572 406.777 284.175 408.975V408.975Z" stroke="white" stroke-width="2.33333" stroke-linecap="round" stroke-linejoin="round"/>
<path d="M268.188 398.225L275.375 402.313L268.188 406.4V398.225Z" stroke="white" stroke-width="2.33333" stroke-linecap="round" stroke-linejoin="round"/>
<path d="M59.825 359.5H70.175L77.5 352.175V341.825L70.175 334.5H59.825L52.5 341.825V352.175L59.825 359.5Z" stroke="#FFFBFB" stroke-width="2.33333" stroke-linecap="round" stroke-linejoin="round"/>
<path d="M68.75 350.75L61.25 343.25" stroke="#FFFBFB" stroke-width="2.33333" stroke-linecap="round" stroke-linejoin="round"/>
<path d="M61.25 350.75L68.75 343.25" stroke="#FFFBFB" stroke-width="2.33333" stroke-linecap="round" stroke-linejoin="round"/>
<path d="M380.25 339.5C380.25 341.158 379.592 342.747 378.419 343.919C377.247 345.092 375.658 345.75 374 345.75C372.342 345.75 370.753 345.092 369.581 343.919C368.408 342.747 367.75 341.158 367.75 339.5" stroke="#FFFBFB" stroke-width="2.33333" stroke-linecap="round" stroke-linejoin="round"/>
<path d="M374 359.5V350.75" stroke="#FFFBFB" stroke-width="2.33333" stroke-linecap="round" stroke-linejoin="round"/>
<path d="M364.275 349.225L366.05 347.45" stroke="#FFFBFB" stroke-width="2.33333" stroke-linecap="round" stroke-linejoin="round"/>
<path d="M360.25 339.5H362.75" stroke="#FFFBFB" stroke-width="2.33333" stroke-linecap="round" stroke-linejoin="round"/>
<path d="M385.25 339.5H387.75" stroke="#FFFBFB" stroke-width="2.33333" stroke-linecap="round" stroke-linejoin="round"/>
<path d="M381.95 347.45L383.725 349.225" stroke="#FFFBFB" stroke-width="2.33333" stroke-linecap="round" stroke-linejoin="round"/>
<path d="M387.75 334.5H360.25" stroke="#FFFBFB" stroke-width="2.33333" stroke-linecap="round" stroke-linejoin="round"/>
<path d="M369 354.5L374 359.5L379 354.5" stroke="#FFFBFB" stroke-width="2.33333" stroke-linecap="round" stroke-linejoin="round"/>
<path d="M427.75 251.75H410.25C409.587 251.75 408.951 252.013 408.482 252.482C408.013 252.951 407.75 253.587 407.75 254.25V271.75C407.75 272.413 408.013 273.049 408.482 273.518C408.951 273.987 409.587 274.25 410.25 274.25H424L430.25 268V254.25C430.25 253.587 429.987 252.951 429.518 252.482C429.049 252.013 428.413 251.75 427.75 251.75Z" stroke="#FFFBFB" stroke-width="2.33333" stroke-linecap="round" stroke-linejoin="round"/>
<path d="M425.25 251.75V261.75H412.75V251.75" stroke="#FFFBFB" stroke-width="2.33333" stroke-linecap="round" stroke-linejoin="round"/>
<path d="M412.75 274.25V268H422.75" stroke="#FFFBFB" stroke-width="2.33333" stroke-linecap="round" stroke-linejoin="round"/>
<path d="M170.75 390.75H153.25C152.587 390.75 151.951 391.013 151.482 391.482C151.013 391.951 150.75 392.587 150.75 393.25V410.75C150.75 411.413 151.013 412.049 151.482 412.518C151.951 412.987 152.587 413.25 153.25 413.25H167L173.25 407V393.25C173.25 392.587 172.987 391.951 172.518 391.482C172.049 391.013 171.413 390.75 170.75 390.75Z" stroke="#FFFBFB" stroke-width="2.33333" stroke-linecap="round" stroke-linejoin="round"/>
<path d="M168.25 390.75V400.75H155.75V390.75" stroke="#FFFBFB" stroke-width="2.33333" stroke-linecap="round" stroke-linejoin="round"/>
<path d="M155.75 413.25V407H165.75" stroke="#FFFBFB" stroke-width="2.33333" stroke-linecap="round" stroke-linejoin="round"/>
</svg>
